<svg xmlns="http://www.w3.org/2000/svg" viewBox="0 0 128 128" role="img" aria-label="RMM Hunter logo">
  <defs>
    <linearGradient id="shield" x1="22" y1="12" x2="108" y2="116" gradientUnits="userSpaceOnUse">
      <stop offset="0" stop-color="#d9f7ff"/>
      <stop offset="0.48" stop-color="#8fb8ff"/>
      <stop offset="1" stop-color="#39d39f"/>
    </linearGradient>
    <linearGradient id="core" x1="42" y1="35" x2="91" y2="91" gradientUnits="userSpaceOnUse">
      <stop offset="0" stop-color="#ffffff"/>
      <stop offset="1" stop-color="#d8e6ff"/>
    </linearGradient>
  </defs>
  <path fill="#0f1522" d="M64 8 106 24v34c0 28-16 51-42 62-26-11-42-34-42-62V24L64 8Z"/>
  <path fill="url(#shield)" d="M64 15 99 28v30c0 23-13 42-35 53-22-11-35-30-35-53V28l35-13Z"/>
  <path fill="#10141c" d="M64 25 90 35v24c0 17-10 32-26 41-16-9-26-24-26-41V35l26-10Z"/>
  <circle cx="64" cy="62" r="23" fill="none" stroke="url(#core)" stroke-width="5"/>
  <circle cx="64" cy="62" r="8" fill="url(#core)"/>
  <path fill="none" stroke="#74f0c0" stroke-linecap="round" stroke-width="5" d="M64 39v-9M64 94v-9M87 62h9M32 62h9"/>
  <path fill="none" stroke="#d8e6ff" stroke-linecap="round" stroke-width="5" d="m48 46-7-7M87 85l-7-7M80 46l7-7M41 85l7-7"/>
  <path fill="none" stroke="#74f0c0" stroke-linecap="round" stroke-linejoin="round" stroke-width="5" d="M55 63h18M64 54v18"/>
</svg>

